<?xml version="1.0" standalone="no"?>
<!DOCTYPE svg PUBLIC "-//W3C//DTD SVG 20010904//EN"
 "http://www.w3.org/TR/2001/REC-SVG-20010904/DTD/svg10.dtd">
<svg version="1.0" xmlns="http://www.w3.org/2000/svg"
 width="129.000000pt" height="129.000000pt" viewBox="0 0 129.000000 129.000000"
 preserveAspectRatio="xMidYMid meet">
<metadata>
Created by potrace 1.11, written by Peter Selinger 2001-2013
</metadata>
<g transform="translate(0.000000,129.000000) scale(0.100000,-0.100000)"
fill="#000000" stroke="none">
<path d="M826 967 l-88 -82 29 -32 30 -32 82 89 c61 66 82 96 79 112 -6 45
-40 31 -132 -55z"/>
<path d="M625 858 c-11 -6 -31 -21 -45 -34 -44 -40 -130 -73 -215 -81 l-80 -8
1 -30 c5 -106 166 -281 303 -330 30 -10 48 -12 56 -5 7 6 14 44 17 88 5 88 30
153 82 213 41 48 51 89 32 134 -23 54 -100 82 -151 53z m21 -238 c-14 -29 -30
-84 -37 -122 -16 -89 -26 -90 -42 -3 -3 18 -5 17 -17 -7 -13 -27 -13 -27 -41
-11 -16 10 -29 20 -29 23 0 3 14 28 31 54 35 56 31 71 -9 35 -61 -56 -62 -56
-88 -24 l-24 30 43 38 c36 33 39 38 17 33 -81 -19 -97 -19 -102 2 -5 17 1 20
55 26 35 3 87 19 122 35 l60 29 43 -42 43 -42 -25 -54z"/>
<path d="M702 474 c-41 -29 -19 -96 31 -96 36 0 57 19 57 53 0 27 -30 59 -55
59 -6 0 -21 -7 -33 -16z"/>
<path d="M880 415 c-19 -23 -8 -50 20 -50 19 0 26 6 28 24 5 35 -26 53 -48 26z"/>
<path d="M772 358 c-15 -15 -15 -51 0 -66 18 -18 56 -14 68 7 14 27 13 37 -6
55 -18 19 -45 21 -62 4z"/>
</g>
</svg>
